<?xml version="1.0" standalone="no"?>
<!DOCTYPE svg PUBLIC "-//W3C//DTD SVG 20010904//EN"
 "http://www.w3.org/TR/2001/REC-SVG-20010904/DTD/svg10.dtd">
<svg version="1.0" xmlns="http://www.w3.org/2000/svg"
 width="934.000000pt" height="238.000000pt" viewBox="0 0 934.000000 238.000000"
 preserveAspectRatio="xMidYMid meet">
<metadata>
Created by potrace 1.16, written by Peter Selinger 2001-2019
</metadata>
<g transform="translate(0.000000,238.000000) scale(0.100000,-0.100000)"
fill="#000000" stroke="none">
<path d="M385 2005 c-50 -18 -100 -71 -114 -122 -15 -54 -15 -1343 0 -1398 14
-51 73 -110 124 -124 27 -7 243 -11 678 -11 553 0 643 2 675 15 47 20 79 50
103 97 18 36 19 69 19 723 0 654 -1 687 -19 723 -24 47 -56 77 -103 97 -32 13
-122 15 -680 15 -528 -1 -650 -3 -683 -15z m482 -326 c138 -12 142 -13 148
-37 3 -14 2 -28 -3 -31 -9 -5 -82 -252 -77 -259 3 -4 245 27 254 32 4 3 14 66
21 141 7 74 19 143 26 153 14 19 105 25 123 7 5 -5 48 -224 93 -485 82 -467
83 -475 63 -484 -11 -5 -102 -11 -202 -14 -156 -4 -183 -2 -188 10 -3 8 2 87
13 176 l18 160 -125 32 c-69 18 -131 35 -137 37 -12 4 -35 -106 -60 -292 -17
-126 -24 -135 -96 -135 -60 0 -62 3 -82 170 -32 263 -61 750 -48 818 5 24 7
24 61 19 31 -3 120 -11 198 -18z"/>
<path d="M2330 1490 c-19 -19 -20 -33 -20 -318 0 -277 1 -300 18 -315 23 -21
46 -22 66 -1 13 12 16 41 16 146 l0 131 64 -61 c35 -34 73 -62 84 -62 23 0 52
30 52 55 0 10 -45 64 -100 120 l-100 101 0 97 c0 88 -2 97 -22 111 -29 20 -34
20 -58 -4z"/>
<path d="M2734 1502 c-27 -18 -34 -56 -34 -183 l0 -132 -64 61 c-67 65 -84 72
-110 46 -32 -31 -19 -57 79 -154 l95 -95 0 -82 c0 -70 3 -86 21 -104 26 -26
60 -21 76 11 14 28 19 586 5 606 -6 10 -45 34 -54 34 -2 0 -8 -4 -14 -8z"/>
<path d="M3424 1502 c-30 -20 -34 -55 -34 -336 0 -273 1 -287 20 -306 26 -26
55 -25 74 1 14 21 16 21 50 5 161 -76 346 43 346 223 0 168 -193 291 -341 217
-18 -9 -34 -16 -36 -16 -1 0 -3 39 -3 88 0 93 -3 103 -37 121 -25 13 -25 13
-39 3z m297 -303 c58 -41 74 -134 34 -195 -23 -36 -98 -68 -141 -60 -73 14
-120 83 -111 162 11 100 134 152 218 93z"/>
<path d="M4836 1494 c-26 -25 -28 -54 -24 -261 5 -219 11 -249 71 -311 63 -66
176 -102 210 -67 20 19 22 58 5 72 -7 6 -31 13 -53 16 -89 14 -125 71 -125
200 l0 87 83 0 c91 0 107 8 107 52 0 38 -24 48 -114 48 l-76 0 0 68 c0 73 -4
83 -37 101 -28 14 -29 14 -47 -5z"/>
<path d="M5445 1494 c-23 -23 -15 -66 15 -81 16 -8 68 -13 140 -13 l115 0
-141 -142 c-78 -79 -144 -150 -147 -159 -8 -24 20 -59 46 -59 31 0 417 386
417 417 0 46 -29 53 -237 53 -163 0 -194 -2 -208 -16z"/>
<path d="M2876 1314 c-25 -24 -22 -274 3 -329 48 -106 176 -166 289 -135 55
14 129 81 155 139 23 52 36 259 18 303 -13 35 -56 48 -79 24 -14 -13 -18 -44
-22 -157 l-5 -141 -36 -33 c-67 -61 -161 -53 -213 18 -18 25 -21 46 -24 163
-3 124 -5 135 -25 149 -27 19 -42 19 -61 -1z"/>
<path d="M4096 1315 c-139 -49 -206 -224 -133 -347 64 -110 198 -157 307 -107
61 28 90 57 90 91 0 36 -41 60 -68 40 -46 -34 -103 -53 -138 -46 -35 6 -104
56 -104 75 0 5 74 9 165 9 152 0 167 2 185 20 27 27 25 73 -4 136 -52 112
-186 170 -300 129z m162 -117 c17 -11 32 -21 32 -23 0 -2 3 -10 6 -19 5 -14
-9 -16 -120 -16 -69 0 -126 4 -126 8 0 18 60 65 92 72 41 9 73 3 116 -22z"/>
<path d="M4487 1312 c-15 -16 -17 -47 -17 -229 0 -191 2 -211 18 -226 23 -21
46 -22 66 -1 13 12 16 40 16 136 0 167 26 214 129 233 47 9 61 21 61 56 0 51
-61 64 -139 29 l-44 -20 -19 20 c-23 25 -50 26 -71 2z"/>
<path d="M6109 1317 c-84 -31 -149 -113 -164 -204 -15 -94 46 -201 140 -248
52 -26 156 -27 204 -2 33 17 35 17 56 -3 26 -24 48 -25 69 -4 14 13 16 48 16
228 0 194 -2 214 -18 229 -25 22 -41 21 -68 -4 -21 -20 -23 -20 -55 -4 -43 23
-135 29 -180 12z m123 -97 c56 -16 92 -68 92 -134 1 -66 -21 -102 -81 -128
-58 -26 -103 -18 -151 26 -32 30 -36 40 -40 93 -4 56 -2 62 28 96 27 32 67 53
105 56 6 1 27 -4 47 -9z"/>
<path d="M6493 1304 c-17 -26 -16 -28 90 -240 88 -176 111 -215 131 -220 33
-8 42 -1 70 54 l23 46 22 -42 c26 -51 62 -72 87 -51 9 7 63 107 120 221 86
172 103 212 94 228 -11 21 -52 36 -70 25 -6 -4 -46 -77 -89 -163 -78 -155 -79
-157 -92 -129 -12 26 -9 36 41 138 57 114 58 127 17 153 -30 19 -50 -5 -131
-164 l-79 -154 -74 149 c-41 83 -82 156 -91 163 -25 19 -50 14 -69 -14z"/>
<path d="M7206 1314 c-14 -14 -16 -46 -14 -237 l3 -222 29 -10 c24 -8 31 -6
47 14 17 21 19 42 19 232 0 203 0 208 -22 223 -28 20 -43 20 -62 0z"/>
<path d="M7410 1311 c-81 -43 -104 -159 -44 -222 46 -48 61 -52 203 -58 128
-6 134 -7 142 -29 6 -17 4 -27 -11 -42 -18 -18 -34 -20 -133 -20 -123 0 -137
-5 -137 -52 0 -43 26 -50 168 -46 146 3 167 12 203 86 36 72 12 143 -62 187
-28 17 -56 21 -162 24 -125 3 -129 4 -139 27 -9 20 -8 28 6 42 13 14 41 18
139 22 122 5 122 5 131 32 8 22 6 32 -9 48 -16 18 -30 20 -139 20 -99 0 -128
-3 -156 -19z"/>
<path d="M7876 1314 c-22 -21 -20 -61 3 -74 11 -5 78 -10 150 -10 72 0 131 -3
131 -7 0 -4 -67 -75 -150 -158 -157 -159 -171 -181 -126 -210 19 -13 57 -15
232 -13 l208 3 15 27 c14 24 14 28 -3 47 -18 19 -30 21 -158 21 -76 0 -138 3
-138 7 0 4 70 77 155 163 85 86 155 162 155 168 0 7 -9 21 -20 32 -19 19 -33
20 -229 20 -177 0 -212 -2 -225 -16z"/>
<path d="M8500 1309 c-125 -56 -182 -196 -130 -317 54 -126 213 -188 329 -127
29 14 32 14 51 -5 26 -26 55 -25 74 2 13 19 16 58 16 230 0 202 0 207 -22 222
-29 21 -44 20 -67 -3 -19 -19 -20 -19 -70 0 -65 24 -124 24 -181 -2z m169
-107 c87 -64 85 -186 -3 -238 -42 -25 -118 -24 -154 3 -38 28 -67 101 -58 147
18 94 140 144 215 88z"/>
<path d="M5627 1112 c-159 -159 -197 -202 -197 -224 0 -17 8 -31 19 -38 12 -6
99 -10 215 -10 210 0 226 4 226 54 0 41 -17 46 -152 46 -70 0 -128 3 -128 8 0
4 63 70 140 147 112 111 140 145 140 167 0 27 -23 48 -52 48 -7 0 -102 -89
-211 -198z"/>
</g>
</svg>
